# xmcd
#
# Track frame offsets:
#	150
#	18316
#	32696
#	53207
#	68829
#	89056
#	110398
#	127323
#	144877
#	164043
#	186269
#	202556
#	222911
#
# Disc length: 3086 seconds
#
# Revision: 0
# Processed by: cddbd v1.4PL0 Copyright (c) Steve Scherf et al.
# Submitted via: dBpowerAMP V4.0
#
DISCID=bc0c0c0d
DTITLE=Coyote Special - River of Sky
DYEAR=1900
DGENRE=Country
TTITLE0=Waitin' for the Call
TTITLE1=Take Me with You
TTITLE2=Full Moon Full of Love
TTITLE3=Never Mind the Time
TTITLE4=Upstream from Nashville
TTITLE5=Cresent Moon
TTITLE6=Back Side of My Heart
TTITLE7=River of Sky
TTITLE8=Before Morning Comes
TTITLE9=Goodbuy Caboose
TTITLE10=Sheephearder's Lament
TTITLE11=Regret Tonight Tomorrow
TTITLE12=West River Waltz
EXTD=
EXTT0=
EXTT1=
EXTT2=
EXTT3=
EXTT4=
EXTT5=
EXTT6=
EXTT7=
EXTT8=
EXTT9=
EXTT10=
EXTT11=
EXTT12=
PLAYORDER=
